<svg width="34" height="34" viewBox="0 0 34 34" fill="none" xmlns="http://www.w3.org/2000/svg">
<circle cx="17" cy="17" r="17" fill="white"/>
<path d="M29.2499 27H4.75001C3.78347 27 3 26.2165 3 25.25C3 24.2835 3.78347 23.5 4.75001 23.5H29.25C30.2165 23.5 31 24.2835 31 25.25C30.9999 26.2165 30.2165 27 29.2499 27Z" fill="#0952A3"/>
<path d="M29.2499 18.25H4.75001C3.78347 18.25 3 17.4665 3 16.5C3 15.5335 3.78347 14.75 4.75001 14.75H29.25C30.2165 14.75 31 15.5335 31 16.5C31 17.4665 30.2165 18.25 29.2499 18.25Z" fill="#0952A3"/>
<path d="M29.2499 9.50002H4.75001C3.78347 9.50002 3 8.71654 3 7.75001C3 6.78347 3.78347 6 4.75001 6H29.25C30.2165 6 31 6.78347 31 7.75001C31 8.71654 30.2165 9.50002 29.2499 9.50002Z" fill="#0952A3"/>
</svg>
