<svg width="23" height="25" viewBox="0 0 23 25" fill="none" xmlns="http://www.w3.org/2000/svg">
<path d="M21.6753 17.7873L20.7485 17.0926C20.4 16.8318 20.1661 16.4461 20.096 16.0165L18.9347 8.9663C18.652 7.13162 17.7222 5.45863 16.3134 4.24982C14.9045 3.04102 13.1097 2.37617 11.2534 2.37549C9.39703 2.37481 7.60171 3.03834 6.19201 4.24612C4.7823 5.4539 3.85126 7.1262 3.56721 8.96068L2.40469 16.0167C2.33467 16.446 2.10094 16.8315 1.75264 17.0921L0.82485 17.7873C0.478544 18.047 0.222761 18.4092 0.0937354 18.8225C-0.0352902 19.2357 -0.0310165 19.6791 0.105951 20.0897C0.242919 20.5004 0.505637 20.8576 0.856886 21.1107C1.20814 21.3637 1.63011 21.4998 2.06302 21.4998H20.4376C20.8705 21.4997 21.2924 21.3635 21.6436 21.1104C21.9948 20.8573 22.2574 20.5001 22.3943 20.0895C22.5312 19.6788 22.5354 19.2355 22.4063 18.8223C22.2772 18.4091 22.0214 18.047 21.6751 17.7873H21.6753Z" fill="#808080"/>
<path d="M12.9379 3.7025C12.7887 3.7025 12.6456 3.64324 12.5401 3.53775C12.4346 3.43226 12.3754 3.28918 12.3754 3.14V2.375C12.3754 2.07663 12.2568 1.79048 12.0459 1.5795C11.8349 1.36853 11.5487 1.25 11.2504 1.25C10.952 1.25 10.6658 1.36853 10.4549 1.5795C10.2439 1.79048 10.1254 2.07663 10.1254 2.375V3.14C10.1254 3.28918 10.0661 3.43226 9.96061 3.53775C9.85512 3.64324 9.71205 3.7025 9.56287 3.7025C9.41368 3.7025 9.27061 3.64324 9.16512 3.53775C9.05963 3.43226 9.00037 3.28918 9.00037 3.14V2.375C9.00037 1.77826 9.23742 1.20597 9.65938 0.78401C10.0813 0.362053 10.6536 0.125 11.2504 0.125C11.8471 0.125 12.4194 0.362053 12.8414 0.78401C13.2633 1.20597 13.5004 1.77826 13.5004 2.375V3.14C13.5004 3.28918 13.4411 3.43226 13.3356 3.53775C13.2301 3.64324 13.087 3.7025 12.9379 3.7025Z" fill="#808080"/>
<path d="M7.69818 22.625C8.01627 23.2981 8.51903 23.8669 9.14792 24.2653C9.7768 24.6637 10.5059 24.8752 11.2504 24.8752C11.9948 24.8752 12.7239 24.6637 13.3528 24.2653C13.9817 23.8669 14.4845 23.2981 14.8026 22.625H7.69818Z" fill="#808080"/>
</svg>
