<svg width="44" height="44" viewBox="0 0 44 44" fill="none" xmlns="http://www.w3.org/2000/svg">
<circle cx="22" cy="22" r="22" fill="white"/>
<circle cx="22" cy="22" r="21.5" stroke="#0952A3" stroke-opacity="0.3"/>
<path d="M24.0625 15.125H15.8125C15.433 15.125 15.125 15.433 15.125 15.8125C15.125 16.192 15.433 16.5 15.8125 16.5H24.0625C24.442 16.5 24.75 16.192 24.75 15.8125C24.75 15.433 24.442 15.125 24.0625 15.125Z" fill="#0952A3"/>
<path d="M21.3125 17.875H15.8125C15.433 17.875 15.125 18.183 15.125 18.5625C15.125 18.942 15.433 19.25 15.8125 19.25H21.3125C21.692 19.25 22 18.942 22 18.5625C22 18.183 21.692 17.875 21.3125 17.875Z" fill="#0952A3"/>
<path d="M26.125 11H13.75C12.2334 11 11 12.2334 11 13.75V27.5C11 27.7668 11.154 28.0101 11.396 28.1229C11.4881 28.1655 11.5885 28.1875 11.6875 28.1875C11.8456 28.1875 12.0024 28.1325 12.1275 28.028L16.0614 24.75H26.125C27.6416 24.75 28.875 23.5166 28.875 22V13.75C28.875 12.2334 27.6416 11 26.125 11ZM27.5 22C27.5 22.7576 26.884 23.375 26.125 23.375H15.8125C15.6516 23.375 15.4963 23.4314 15.3725 23.5345L12.375 26.0329V13.75C12.375 12.9924 12.991 12.375 13.75 12.375H26.125C26.884 12.375 27.5 12.9924 27.5 13.75V22Z" fill="#0952A3"/>
<path d="M30.25 16.5C29.8705 16.5 29.5625 16.808 29.5625 17.1875C29.5625 17.567 29.8705 17.875 30.25 17.875C31.009 17.875 31.625 18.4924 31.625 19.25V30.8811L29.304 29.0249C29.183 28.9286 29.0304 28.875 28.875 28.875H19.25C18.491 28.875 17.875 28.2576 17.875 27.5V26.8125C17.875 26.433 17.567 26.125 17.1875 26.125C16.808 26.125 16.5 26.433 16.5 26.8125V27.5C16.5 29.0166 17.7334 30.25 19.25 30.25H28.633L31.8821 32.8501C32.0073 32.9491 32.1599 33 32.3125 33C32.4129 33 32.5146 32.978 32.6109 32.9326C32.8487 32.8171 33 32.5765 33 32.3125V19.25C33 17.7334 31.7666 16.5 30.25 16.5Z" fill="#0952A3"/>
</svg>
