<svg width="44" height="44" viewBox="0 0 44 44" fill="none" xmlns="http://www.w3.org/2000/svg">
<circle cx="22" cy="22" r="22" fill="white"/>
<circle cx="22" cy="22" r="21.5" stroke="#0952A3" stroke-opacity="0.3"/>
<path d="M30.6295 11H13.3705C12.0634 11 11 12.0633 11 13.3704V27.868C11 29.1751 12.0634 30.2385 13.3705 30.2385H18.9715L21.5442 32.8112C21.665 32.932 21.829 33 21.9999 33C22.1709 33 22.3348 32.9321 22.4557 32.8112L25.0284 30.2385H30.6295C31.9366 30.2385 33 29.1751 33 27.868V13.3704C33 12.0633 31.9366 11 30.6295 11V11ZM31.7109 27.868C31.7109 28.4643 31.2258 28.9494 30.6295 28.9494H24.7614C24.5904 28.9494 24.4265 29.0173 24.3057 29.1382L21.9999 31.4439L19.6943 29.1382C19.5734 29.0174 19.4095 28.9494 19.2385 28.9494H13.3705C12.7742 28.9494 12.2891 28.4643 12.2891 27.868V13.3704C12.2891 12.7741 12.7742 12.2891 13.3705 12.2891H30.6295C31.2258 12.2891 31.7109 12.7741 31.7109 13.3704V27.868Z" fill="#0952A3"/>
<path d="M27.5369 18.4144L24.1107 17.9164L22.578 14.8114C22.4694 14.5914 22.2453 14.4521 22 14.4521C21.7547 14.4521 21.5306 14.5914 21.4221 14.8114L19.8895 17.9164L16.4631 18.4144C16.2203 18.4497 16.0186 18.6197 15.9427 18.853C15.8669 19.0864 15.9302 19.3425 16.1059 19.5137L18.5854 21.9306L18.0002 25.3432C17.9587 25.585 18.0581 25.8293 18.2566 25.9736C18.4551 26.1178 18.7182 26.1368 18.9353 26.0227L22 24.4115L25.0649 26.0227C25.1592 26.0722 25.2622 26.0967 25.3648 26.0967H25.3674C25.7226 26.0958 26.0103 25.8076 26.0103 25.4522C26.0103 25.4027 26.0047 25.3545 25.9941 25.3081L25.4145 21.9306L27.8941 19.5138C28.0697 19.3425 28.133 19.0864 28.0572 18.8531C27.9814 18.6197 27.7797 18.4497 27.5369 18.4144ZM24.2721 21.244C24.1202 21.3921 24.0508 21.6054 24.0867 21.8145L24.5088 24.2739L22.2999 23.1128C22.1121 23.0141 21.8878 23.0141 21.7001 23.1128L19.4914 24.2739L19.9132 21.8145C19.9491 21.6054 19.8797 21.3921 19.7279 21.244L17.9409 19.5022L20.4102 19.1433C20.6201 19.1128 20.8016 18.981 20.8955 18.7907L22 16.5529L23.1047 18.7908C23.1986 18.981 23.38 19.1128 23.59 19.1433L26.0591 19.5022L24.2721 21.244Z" fill="#0952A3"/>
</svg>
