<svg width="44" height="44" viewBox="0 0 44 44" fill="none" xmlns="http://www.w3.org/2000/svg">
<circle cx="22" cy="22" r="22" fill="white"/>
<circle cx="22" cy="22" r="21.5" stroke="#0952A3" stroke-opacity="0.3"/>
<path d="M32.0072 22.0962V19.0031C32.0072 17.9542 31.1937 17.1012 30.1658 17.0185L27.2933 12.0012C27.0271 11.5371 26.5972 11.2055 26.0829 11.0678C25.5709 10.931 25.0356 11.0028 24.5775 11.2695L14.7302 17.0024H13.0008C11.8974 17.0024 11.0001 17.8996 11.0001 19.0031V31.0071C11.0001 32.1105 11.8973 33.0078 13.0008 33.0078H30.0065C31.1099 33.0078 32.0072 32.1106 32.0072 31.0071V27.914C32.5882 27.7068 33.0076 27.1568 33.0076 26.5056V23.5046C33.0076 22.8534 32.5882 22.3034 32.0072 22.0962ZM29.0034 17.0024H24.6439L27.9136 15.0988L29.0034 17.0024ZM27.4166 14.2307L22.6558 17.0024H20.6811L26.9228 13.3683L27.4166 14.2307ZM25.081 12.134C25.3072 12.0016 25.5714 11.9665 25.824 12.0339C26.0794 12.1023 26.2924 12.2674 26.4248 12.4984L26.4258 12.5002L18.693 17.0024H16.7184L25.081 12.134ZM31.0069 31.0071C31.0069 31.5586 30.558 32.0075 30.0065 32.0075H13.0008C12.4493 32.0075 12.0004 31.5586 12.0004 31.0071V19.0031C12.0004 18.4516 12.4493 18.0027 13.0008 18.0027H30.0065C30.558 18.0027 31.0069 18.4516 31.0069 19.0031V22.0041H28.0059C26.351 22.0041 25.0048 23.3502 25.0048 25.0051C25.0048 26.66 26.351 28.0061 28.0059 28.0061H31.0069V31.0071V31.0071ZM32.0072 26.5056C32.0072 26.7816 31.7831 27.0058 31.5071 27.0058H28.0059C26.9025 27.0058 26.0052 26.1085 26.0052 25.0051C26.0052 23.9017 26.9024 23.0044 28.0059 23.0044H31.5071C31.783 23.0044 32.0072 23.2286 32.0072 23.5046V26.5056V26.5056Z" fill="#0952A3"/>
<path d="M28.0059 24.0049C27.4545 24.0049 27.0056 24.4538 27.0056 25.0052C27.0056 25.5566 27.4545 26.0055 28.0059 26.0055C28.5573 26.0055 29.0062 25.5566 29.0062 25.0052C29.0063 24.4538 28.5574 24.0049 28.0059 24.0049Z" fill="#0952A3"/>
</svg>
