<svg width="44" height="44" viewBox="0 0 44 44" fill="none" xmlns="http://www.w3.org/2000/svg">
<circle cx="22" cy="22" r="22" fill="white"/>
<circle cx="22" cy="22" r="21.5" stroke="#0952A3" stroke-opacity="0.3"/>
<path d="M20.9 27.8662C20.8027 27.8662 20.7095 27.9048 20.6407 27.9736C20.572 28.0424 20.5333 28.1356 20.5333 28.2329V28.5995C20.5333 28.6968 20.572 28.7901 20.6407 28.8588C20.7095 28.9276 20.8027 28.9662 20.9 28.9662C20.9972 28.9662 21.0905 28.9276 21.1593 28.8588C21.228 28.7901 21.2667 28.6968 21.2667 28.5995V28.2329C21.2667 28.1356 21.228 28.0424 21.1593 27.9736C21.0905 27.9048 20.9972 27.8662 20.9 27.8662Z" fill="#0952A3"/>
<path d="M23.1 27.8662C23.0028 27.8662 22.9095 27.9048 22.8407 27.9736C22.772 28.0424 22.7333 28.1356 22.7333 28.2329V28.5995C22.7333 28.6968 22.772 28.7901 22.8407 28.8588C22.9095 28.9276 23.0028 28.9662 23.1 28.9662C23.1973 28.9662 23.2905 28.9276 23.3593 28.8588C23.428 28.7901 23.4667 28.6968 23.4667 28.5995V28.2329C23.4667 28.1356 23.428 28.0424 23.3593 27.9736C23.2905 27.9048 23.1973 27.8662 23.1 27.8662Z" fill="#0952A3"/>
<path d="M19.4333 14.6663C19.4333 14.3745 19.3174 14.0947 19.1112 13.8885C18.9049 13.6822 18.6251 13.5663 18.3333 13.5663C18.2608 13.5663 18.1899 13.5448 18.1296 13.5045C18.0693 13.4642 18.0223 13.4069 17.9946 13.3399C17.9668 13.2729 17.9596 13.1992 17.9737 13.1281C17.9879 13.057 18.0228 12.9916 18.0741 12.9403C18.1253 12.8891 18.1907 12.8541 18.2618 12.84C18.3329 12.8258 18.4067 12.8331 18.4737 12.8609C18.5407 12.8886 18.5979 12.9356 18.6382 12.9959C18.6785 13.0562 18.7 13.1271 18.7 13.1996C18.7 13.2969 18.7386 13.3901 18.8074 13.4589C18.8762 13.5276 18.9694 13.5663 19.0667 13.5663C19.1639 13.5663 19.2572 13.5276 19.3259 13.4589C19.3947 13.3901 19.4333 13.2969 19.4333 13.1996C19.4333 12.9821 19.3688 12.7694 19.248 12.5885C19.1271 12.4076 18.9553 12.2666 18.7543 12.1833C18.5533 12.1001 18.3321 12.0783 18.1187 12.1207C17.9054 12.1632 17.7094 12.268 17.5555 12.4218C17.4017 12.5756 17.2969 12.7716 17.2545 12.985C17.212 13.1984 17.2338 13.4196 17.3171 13.6206C17.4003 13.8216 17.5413 13.9934 17.7222 14.1142C17.9031 14.2351 18.1158 14.2996 18.3333 14.2996C18.4059 14.2996 18.4767 14.3211 18.537 14.3614C18.5973 14.4017 18.6443 14.459 18.6721 14.526C18.6998 14.593 18.7071 14.6667 18.693 14.7378C18.6788 14.8089 18.6439 14.8743 18.5926 14.9255C18.5413 14.9768 18.476 15.0117 18.4049 15.0259C18.3337 15.04 18.26 15.0328 18.193 15.005C18.126 14.9773 18.0688 14.9303 18.0285 14.87C17.9882 14.8097 17.9667 14.7388 17.9667 14.6663C17.9667 14.569 17.928 14.4758 17.8593 14.407C17.7905 14.3382 17.6973 14.2996 17.6 14.2996C17.5028 14.2996 17.4095 14.3382 17.3407 14.407C17.272 14.4758 17.2333 14.569 17.2333 14.6663C17.2333 14.958 17.3492 15.2378 17.5555 15.4441C17.7618 15.6504 18.0416 15.7663 18.3333 15.7663C18.6251 15.7663 18.9049 15.6504 19.1112 15.4441C19.3174 15.2378 19.4333 14.958 19.4333 14.6663Z" fill="#0952A3"/>
<path d="M23.4667 15.7663C23.7584 15.7663 24.0382 15.6504 24.2445 15.4441C24.4508 15.2378 24.5667 14.958 24.5667 14.6663V13.1996C24.5667 12.9079 24.4508 12.6281 24.2445 12.4218C24.0382 12.2155 23.7584 12.0996 23.4667 12.0996C23.1749 12.0996 22.8951 12.2155 22.6889 12.4218C22.4826 12.6281 22.3667 12.9079 22.3667 13.1996V14.6663C22.3667 14.958 22.4826 15.2378 22.6889 15.4441C22.8951 15.6504 23.1749 15.7663 23.4667 15.7663ZM23.1 13.1996C23.1 13.1024 23.1386 13.0091 23.2074 12.9403C23.2762 12.8716 23.3694 12.8329 23.4667 12.8329C23.5639 12.8329 23.6572 12.8716 23.7259 12.9403C23.7947 13.0091 23.8333 13.1024 23.8333 13.1996V14.6663C23.8333 14.7635 23.7947 14.8568 23.7259 14.9255C23.6572 14.9943 23.5639 15.0329 23.4667 15.0329C23.3694 15.0329 23.2762 14.9943 23.2074 14.9255C23.1386 14.8568 23.1 14.7635 23.1 14.6663V13.1996Z" fill="#0952A3"/>
<path d="M20.1667 15.7663C20.2639 15.7663 20.3572 15.7276 20.4259 15.6589C20.4947 15.5901 20.5333 15.4969 20.5333 15.3996V14.2996H21.2667V15.3996C21.2667 15.4969 21.3053 15.5901 21.374 15.6589C21.4428 15.7276 21.5361 15.7663 21.6333 15.7663C21.7306 15.7663 21.8238 15.7276 21.8926 15.6589C21.9614 15.5901 22 15.4969 22 15.3996V12.4663C22 12.369 21.9614 12.2758 21.8926 12.207C21.8238 12.1382 21.7306 12.0996 21.6333 12.0996C21.5361 12.0996 21.4428 12.1382 21.374 12.207C21.3053 12.2758 21.2667 12.369 21.2667 12.4663V13.5663H20.5333V12.4663C20.5333 12.369 20.4947 12.2758 20.4259 12.207C20.3572 12.1382 20.2639 12.0996 20.1667 12.0996C20.0694 12.0996 19.9761 12.1382 19.9074 12.207C19.8386 12.2758 19.8 12.369 19.8 12.4663V15.3996C19.8 15.4969 19.8386 15.5901 19.9074 15.6589C19.9761 15.7276 20.0694 15.7663 20.1667 15.7663Z" fill="#0952A3"/>
<path d="M25.3 15.7663C25.3972 15.7663 25.4905 15.7276 25.5593 15.6589C25.628 15.5901 25.6667 15.4969 25.6667 15.3996V14.2996H26.0333C26.3251 14.2996 26.6048 14.1837 26.8111 13.9774C27.0174 13.7711 27.1333 13.4913 27.1333 13.1996C27.1333 12.9079 27.0174 12.6281 26.8111 12.4218C26.6048 12.2155 26.3251 12.0996 26.0333 12.0996H25.3C25.2027 12.0996 25.1095 12.1382 25.0407 12.207C24.9719 12.2758 24.9333 12.369 24.9333 12.4663V15.3996C24.9333 15.4969 24.9719 15.5901 25.0407 15.6589C25.1095 15.7276 25.2027 15.7663 25.3 15.7663ZM25.6667 12.8329H26.0333C26.1306 12.8329 26.2238 12.8716 26.2926 12.9403C26.3614 13.0091 26.4 13.1024 26.4 13.1996C26.4 13.2969 26.3614 13.3901 26.2926 13.4589C26.2238 13.5276 26.1306 13.5663 26.0333 13.5663H25.6667V12.8329Z" fill="#0952A3"/>
<path d="M31.9 30.8H31.1667V23.43C31.5802 23.3444 31.9517 23.1191 32.2188 22.7919C32.4859 22.4648 32.6323 22.0557 32.6333 21.6333V20.9C32.6338 20.8313 32.6147 20.7639 32.5783 20.7057L30.745 17.7723C30.7117 17.7198 30.6657 17.6764 30.6112 17.6463C30.5567 17.6162 30.4956 17.6003 30.4333 17.6H25.6667V16.8667H27.5C27.7915 16.8658 28.0708 16.7496 28.2769 16.5435C28.483 16.3374 28.5991 16.0581 28.6 15.7667V12.1C28.5991 11.8085 28.483 11.5292 28.2769 11.3231C28.0708 11.117 27.7915 11.0009 27.5 11H16.5C16.2085 11.0009 15.9292 11.117 15.7231 11.3231C15.517 11.5292 15.4009 11.8085 15.4 12.1V15.7667C15.4009 16.0581 15.517 16.3374 15.7231 16.5435C15.9292 16.7496 16.2085 16.8658 16.5 16.8667H18.3333V17.6H13.5667C13.5044 17.6003 13.4433 17.6162 13.3888 17.6463C13.3343 17.6764 13.2883 17.7198 13.255 17.7723L11.4217 20.7057C11.3853 20.7639 11.3662 20.8313 11.3667 20.9V21.6333C11.3677 22.0557 11.5141 22.4648 11.7812 22.7919C12.0483 23.1191 12.4198 23.3444 12.8333 23.43V30.8H12.1C11.8085 30.8009 11.5292 30.917 11.3231 31.1231C11.117 31.3292 11.0009 31.6085 11 31.9V32.6333C11 32.7306 11.0386 32.8238 11.1074 32.8926C11.1762 32.9614 11.2694 33 11.3667 33H32.6333C32.7306 33 32.8238 32.9614 32.8926 32.8926C32.9614 32.8238 33 32.7306 33 32.6333V31.9C32.9991 31.6085 32.883 31.3292 32.6769 31.1231C32.4708 30.917 32.1915 30.8009 31.9 30.8ZM31.9 21.6333C31.9 21.9251 31.7841 22.2049 31.5778 22.4112C31.3715 22.6174 31.0917 22.7333 30.8 22.7333C30.5083 22.7333 30.2285 22.6174 30.0222 22.4112C29.8159 22.2049 29.7 21.9251 29.7 21.6333V21.2667H31.9V21.6333ZM26.4 24.9333H17.6C17.3085 24.9342 17.0292 25.0504 16.8231 25.2565C16.617 25.4626 16.5009 25.7419 16.5 26.0333V30.8H13.5667V23.43C14.0082 23.3381 14.4 23.086 14.6667 22.7223C14.8354 22.953 15.0561 23.1406 15.311 23.2699C15.5658 23.3992 15.8476 23.4666 16.1333 23.4666C16.4191 23.4666 16.7009 23.3992 16.9557 23.2699C17.2105 23.1406 17.4313 22.953 17.6 22.7223C17.7687 22.953 17.9895 23.1406 18.2443 23.2699C18.4991 23.3992 18.7809 23.4666 19.0667 23.4666C19.3524 23.4666 19.6342 23.3992 19.889 23.2699C20.1439 23.1406 20.3646 22.953 20.5333 22.7223C20.7021 22.953 20.9228 23.1406 21.1776 23.2699C21.4325 23.3992 21.7142 23.4666 22 23.4666C22.2858 23.4666 22.5675 23.3992 22.8224 23.2699C23.0772 23.1406 23.2979 22.953 23.4667 22.7223C23.6354 22.953 23.8561 23.1406 24.111 23.2699C24.3658 23.3992 24.6476 23.4666 24.9333 23.4666C25.2191 23.4666 25.5009 23.3992 25.7557 23.2699C26.0105 23.1406 26.2313 22.953 26.4 22.7223C26.5687 22.953 26.7895 23.1406 27.0443 23.2699C27.2991 23.3992 27.5809 23.4666 27.8667 23.4666C28.1524 23.4666 28.4342 23.3992 28.689 23.2699C28.9439 23.1406 29.1646 22.953 29.3333 22.7223C29.6 23.086 29.9918 23.3381 30.4333 23.43V30.8H27.5V26.0333C27.4991 25.7419 27.383 25.4626 27.1769 25.2565C26.9708 25.0504 26.6915 24.9342 26.4 24.9333ZM26.7667 26.0333V30.8H22.3667V25.6667H26.4C26.4972 25.6667 26.5905 25.7053 26.6593 25.7741C26.728 25.8428 26.7667 25.9361 26.7667 26.0333ZM21.6333 25.6667V30.8H17.2333V26.0333C17.2333 25.9361 17.272 25.8428 17.3407 25.7741C17.4095 25.7053 17.5028 25.6667 17.6 25.6667H21.6333ZM15.0333 21.6333V21.2667H17.2333V21.6333C17.2333 21.9251 17.1174 22.2049 16.9112 22.4112C16.7049 22.6174 16.4251 22.7333 16.1333 22.7333C15.8416 22.7333 15.5618 22.6174 15.3555 22.4112C15.1492 22.2049 15.0333 21.9251 15.0333 21.6333ZM17.9667 21.6333V21.2667H20.1667V21.6333C20.1667 21.9251 20.0508 22.2049 19.8445 22.4112C19.6382 22.6174 19.3584 22.7333 19.0667 22.7333C18.7749 22.7333 18.4951 22.6174 18.2888 22.4112C18.0826 22.2049 17.9667 21.9251 17.9667 21.6333ZM23.1 21.2667V21.6333C23.1 21.9251 22.9841 22.2049 22.7778 22.4112C22.5715 22.6174 22.2917 22.7333 22 22.7333C21.7083 22.7333 21.4285 22.6174 21.2222 22.4112C21.0159 22.2049 20.9 21.9251 20.9 21.6333V21.2667H23.1ZM20.9477 20.5333L21.2227 18.3333H22.7773L23.0523 20.5333H20.9477ZM19.0667 17.6V16.8667H24.9333V17.6H19.0667ZM23.8333 21.6333V21.2667H26.0333V21.6333C26.0333 21.9251 25.9174 22.2049 25.7112 22.4112C25.5049 22.6174 25.2251 22.7333 24.9333 22.7333C24.6416 22.7333 24.3618 22.6174 24.1555 22.4112C23.9492 22.2049 23.8333 21.9251 23.8333 21.6333ZM26.7667 21.6333V21.2667H28.9667V21.6333C28.9667 21.9251 28.8508 22.2049 28.6445 22.4112C28.4382 22.6174 28.1584 22.7333 27.8667 22.7333C27.5749 22.7333 27.2951 22.6174 27.0889 22.4112C26.8826 22.2049 26.7667 21.9251 26.7667 21.6333ZM30.2317 18.3333L31.6067 20.5333H29.5607L28.4607 18.3333H30.2317ZM27.6393 18.3333L28.7393 20.5333H26.653L25.828 18.3333H27.6393ZM25.872 20.5333H23.7893L23.5143 18.3333H25.047L25.872 20.5333ZM16.5 16.1333C16.4028 16.1333 16.3095 16.0947 16.2407 16.0259C16.172 15.9572 16.1333 15.8639 16.1333 15.7667V12.1C16.1333 12.0028 16.172 11.9095 16.2407 11.8407C16.3095 11.772 16.4028 11.7333 16.5 11.7333H27.5C27.5972 11.7333 27.6905 11.772 27.7593 11.8407C27.828 11.9095 27.8667 12.0028 27.8667 12.1V15.7667C27.8667 15.8639 27.828 15.9572 27.7593 16.0259C27.6905 16.0947 27.5972 16.1333 27.5 16.1333H16.5ZM18.953 18.3333H20.4857L20.2107 20.5333H18.128L18.953 18.3333ZM18.172 18.3333L17.347 20.5333H15.2607L16.3607 18.3333H18.172ZM13.7683 18.3333H15.5393L14.4393 20.5333H12.3933L13.7683 18.3333ZM12.1 21.6333V21.2667H14.3V21.6333C14.3 21.9251 14.1841 22.2049 13.9778 22.4112C13.7715 22.6174 13.4917 22.7333 13.2 22.7333C12.9083 22.7333 12.6285 22.6174 12.4222 22.4112C12.2159 22.2049 12.1 21.9251 12.1 21.6333ZM32.2667 32.2667H11.7333V31.9C11.7333 31.8028 11.772 31.7095 11.8407 31.6407C11.9095 31.572 12.0028 31.5333 12.1 31.5333H31.9C31.9972 31.5333 32.0905 31.572 32.1593 31.6407C32.228 31.7095 32.2667 31.8028 32.2667 31.9V32.2667Z" fill="#0952A3"/>
</svg>
