<svg width="17" height="17" viewBox="0 0 17 17" fill="none" xmlns="http://www.w3.org/2000/svg">
<path d="M8.50018 0C3.8131 0 0.000183105 3.81291 0.000183105 8.5C0.000183105 13.1871 3.8131 17 8.50018 17C13.1873 17 17.0002 13.1871 17.0002 8.5C17.0002 3.81291 13.1873 0 8.50018 0Z" fill="white"/>
<path d="M12.2802 9.21996H9.22015V12.28C9.22015 12.6775 8.89767 13 8.50018 13C8.10269 13 7.78022 12.6775 7.78022 12.28V9.21996H4.72015C4.32266 9.21996 4.00018 8.89749 4.00018 8.5C4.00018 8.10251 4.32266 7.78004 4.72015 7.78004H7.78022V4.71996C7.78022 4.32247 8.10269 4 8.50018 4C8.89767 4 9.22015 4.32247 9.22015 4.71996V7.78004H12.2802C12.6777 7.78004 13.0002 8.10251 13.0002 8.5C13.0002 8.89749 12.6777 9.21996 12.2802 9.21996Z" fill="#FBBC05"/>
</svg>
