<svg width="44" height="44" viewBox="0 0 44 44" fill="none" xmlns="http://www.w3.org/2000/svg">
<circle cx="22" cy="22" r="22" fill="white"/>
<circle cx="22" cy="22" r="21.5" stroke="#0952A3" stroke-opacity="0.3"/>
<path d="M20.5356 21.2644H14.6644C13.6925 21.2644 12.7605 20.8783 12.0733 20.1911C11.3861 19.5039 11 18.5719 11 17.6V14.6644C11 13.6925 11.3861 12.7605 12.0733 12.0733C12.7605 11.3861 13.6925 11 14.6644 11H17.6C18.5719 11 19.5039 11.3861 20.1911 12.0733C20.8783 12.7605 21.2644 13.6925 21.2644 14.6644V20.5287C21.2644 20.7227 21.1878 20.9087 21.0513 21.0465C20.9149 21.1843 20.7295 21.2626 20.5356 21.2644ZM14.6644 12.4644C14.0809 12.4644 13.5213 12.6962 13.1087 13.1087C12.6962 13.5213 12.4644 14.0809 12.4644 14.6644V17.6C12.4644 18.1835 12.6962 18.7431 13.1087 19.1556C13.5213 19.5682 14.0809 19.8 14.6644 19.8H19.8V14.6644C19.8 14.0809 19.5682 13.5213 19.1556 13.1087C18.7431 12.6962 18.1835 12.4644 17.6 12.4644H14.6644Z" fill="#0952A3"/>
<path d="M29.3356 21.2644H23.4644C23.2693 21.2644 23.0821 21.1869 22.9442 21.0489C22.8062 20.911 22.7287 20.7239 22.7287 20.5288V14.6644C22.7287 14.1826 22.8237 13.7055 23.0083 13.2605C23.1929 12.8155 23.4634 12.4112 23.8044 12.0708C24.1454 11.7305 24.5502 11.4607 24.9956 11.277C25.4409 11.0932 25.9182 10.9991 26.4 11H29.3356C30.3075 11 31.2395 11.3861 31.9267 12.0733C32.6139 12.7605 33 13.6925 33 14.6644V17.6C33 18.5719 32.6139 19.5039 31.9267 20.1911C31.2395 20.8783 30.3075 21.2644 29.3356 21.2644ZM24.2 19.8H29.3356C29.9191 19.8 30.4787 19.5682 30.8912 19.1556C31.3038 18.7431 31.5356 18.1835 31.5356 17.6V14.6644C31.5356 14.0809 31.3038 13.5213 30.8912 13.1087C30.4787 12.6962 29.9191 12.4644 29.3356 12.4644H26.4C25.8165 12.4644 25.2569 12.6962 24.8443 13.1087C24.4318 13.5213 24.2 14.0809 24.2 14.6644V19.8Z" fill="#0952A3"/>
<path d="M17.6 32.9997H14.6644C13.6925 32.9997 12.7605 32.6137 12.0733 31.9265C11.3861 31.2393 11 30.3072 11 29.3353V26.3997C11 25.4279 11.3861 24.4958 12.0733 23.8086C12.7605 23.1214 13.6925 22.7354 14.6644 22.7354H20.5287C20.7238 22.7354 20.911 22.8129 21.0489 22.9508C21.1869 23.0888 21.2644 23.2759 21.2644 23.471V29.3353C21.2644 30.3072 20.8783 31.2393 20.1911 31.9265C19.5039 32.6137 18.5719 32.9997 17.6 32.9997ZM14.6644 24.1997C14.0809 24.1997 13.5213 24.4315 13.1087 24.8441C12.6962 25.2567 12.4644 25.8162 12.4644 26.3997V29.3353C12.4644 29.9188 12.6962 30.4784 13.1087 30.891C13.5213 31.3036 14.0809 31.5353 14.6644 31.5353H17.6C18.1835 31.5353 18.7431 31.3036 19.1556 30.891C19.5682 30.4784 19.8 29.9188 19.8 29.3353V24.1997H14.6644Z" fill="#0952A3"/>
<path d="M29.3356 32.9998H26.3999C25.4281 32.9998 24.496 32.6137 23.8088 31.9265C23.1216 31.2393 22.7356 30.3072 22.7356 29.3354V23.4641C22.7356 23.269 22.8131 23.0819 22.951 22.944C23.089 22.806 23.2761 22.7285 23.4712 22.7285H29.3356C29.8174 22.7285 30.2944 22.8235 30.7394 23.0081C31.1845 23.1927 31.5887 23.4632 31.9291 23.8042C32.2695 24.1452 32.5392 24.55 32.723 24.9954C32.9067 25.4407 33.0008 25.918 32.9999 26.3998V29.3354C32.9999 30.3072 32.6139 31.2393 31.9267 31.9265C31.2395 32.6137 30.3074 32.9998 29.3356 32.9998ZM24.1999 24.1998V29.3354C24.1999 29.9189 24.4317 30.4784 24.8443 30.891C25.2569 31.3036 25.8165 31.5354 26.3999 31.5354H29.3356C29.919 31.5354 30.4786 31.3036 30.8912 30.891C31.3038 30.4784 31.5356 29.9189 31.5356 29.3354V26.3998C31.5356 25.8163 31.3038 25.2567 30.8912 24.8441C30.4786 24.4316 29.919 24.1998 29.3356 24.1998H24.1999Z" fill="#0952A3"/>
</svg>
