<svg width="23" height="23" viewBox="0 0 23 23" fill="none" xmlns="http://www.w3.org/2000/svg">
<rect x="0.000244141" y="0.802734" width="22.1972" height="22.1972" rx="11.0986" fill="#0E50A4"/>
<path d="M10.8787 15.3685L10.8787 15.3685L6.2708 10.9812C5.87501 10.6084 5.87556 9.99204 6.27244 9.61993C6.27244 9.61993 6.27244 9.61993 6.27244 9.61993L6.55455 9.35543L6.55455 9.35543C6.93363 9.00001 7.53491 9.00001 7.91399 9.35543L7.9174 9.35863L7.91738 9.35865L11.5614 12.8398L15.2053 9.3622L15.2085 9.35914L15.2085 9.35916C15.5876 9.00374 16.1888 9.00374 16.5679 9.35916M10.8787 15.3685L16.5679 9.35916M10.8787 15.3685L10.8815 15.3711C11.2601 15.7261 11.8586 15.7258 12.237 15.3785L12.2371 15.3786L12.2437 15.3722L16.8517 10.9849M10.8787 15.3685L16.8517 10.9849M16.5679 9.35916L16.85 9.62365C17.2469 9.99576 17.2475 10.6121 16.8517 10.9849M16.5679 9.35916L16.8517 10.9849" fill="white" stroke="white"/>
</svg>
