<svg width="44" height="44" viewBox="0 0 44 44" fill="none" xmlns="http://www.w3.org/2000/svg">
<circle cx="22" cy="22" r="22" fill="white"/>
<circle cx="22" cy="22" r="21.5" stroke="#0952A3" stroke-opacity="0.3"/>
<path d="M30.8557 17.7494L21.6697 12.0478C21.5674 11.9841 21.4381 11.9841 21.3355 12.0478L12.1495 17.7494C12.0567 17.8074 12 17.9091 12 18.0187V19.6024C12 19.7174 12.0624 19.8232 12.1628 19.8793C12.2629 19.9347 12.3858 19.9325 12.484 19.8717L13.267 19.3855V30.689C13.267 30.8642 13.4089 31.0058 13.5838 31.0058H15.1676H27.8379H29.4217C29.5966 31.0058 29.7385 30.8642 29.7385 30.689V19.3855L30.5218 19.8717C30.5728 19.9034 30.6308 19.9192 30.6888 19.9192C30.7417 19.9192 30.7949 19.9059 30.8427 19.8793C30.9431 19.8232 31.0055 19.7174 31.0055 19.6024V18.0187C31.0055 17.9091 30.9488 17.8074 30.8557 17.7494ZM27.5212 24.0371H15.4843V23.0868H27.5212V24.0371ZM15.4843 24.6706H27.5212V25.6209H15.4843V24.6706ZM15.4843 26.2544H27.5212V27.2047H15.4843V26.2544ZM15.4843 27.8382H27.5212V28.7885H15.4843V27.8382ZM15.4843 30.3722V29.422H27.5212V30.3722H15.4843ZM29.105 30.3722H28.1547V22.77C28.1547 22.5949 28.0128 22.4533 27.8379 22.4533H15.1676C14.9927 22.4533 14.8508 22.5949 14.8508 22.77V30.3722H13.9006V18.9921L21.5028 14.2736L29.105 18.9924V30.3722ZM30.372 19.0329L21.6697 13.6315C21.6187 13.5999 21.5607 13.584 21.5028 13.584C21.4448 13.584 21.3868 13.5999 21.3358 13.6315L12.6335 19.0329V18.1948L21.5028 12.6895L30.372 18.1948V19.0329Z" fill="#0952A3"/>
<path d="M18.6518 19.9193V21.1863C18.6518 21.3615 18.7937 21.5031 18.9686 21.5031H24.0367C24.2115 21.5031 24.3535 21.3615 24.3535 21.1863V19.9193C24.3535 19.7441 24.2115 19.6025 24.0367 19.6025H18.9686C18.7937 19.6025 18.6518 19.7441 18.6518 19.9193ZM19.2853 20.2361H23.7199V20.8696H19.2853V20.2361Z" fill="#0952A3"/>
<path d="M25.3035 21.5031H27.8376C28.0124 21.5031 28.1543 21.3615 28.1543 21.1863V19.9193C28.1543 19.7441 28.0124 19.6025 27.8376 19.6025H25.3035C25.1287 19.6025 24.9868 19.7441 24.9868 19.9193V21.1863C24.9868 21.3615 25.1287 21.5031 25.3035 21.5031ZM25.6203 20.2361H27.5208V20.8696H25.6203V20.2361Z" fill="#0952A3"/>
<path d="M17.7016 19.6025H15.1675C14.9927 19.6025 14.8508 19.7441 14.8508 19.9193V21.1863C14.8508 21.3615 14.9927 21.5031 15.1675 21.5031H17.7016C17.8764 21.5031 18.0184 21.3615 18.0184 21.1863V19.9193C18.0184 19.7441 17.8764 19.6025 17.7016 19.6025ZM17.3848 20.8696H15.4843V20.2361H17.3848V20.8696Z" fill="#0952A3"/>
</svg>
