<svg width="10" height="16" viewBox="0 0 10 16" fill="none" xmlns="http://www.w3.org/2000/svg">
<path d="M8.51726 8.50969L8.51727 8.5097L8.5199 8.5069C8.93103 8.06839 8.9307 7.37306 8.52846 6.93471L8.52852 6.93466L8.52218 6.92799L2.72711 0.841523C2.29816 0.385848 1.59097 0.386402 1.16271 0.843186L0.813363 1.21579C0.40178 1.65477 0.40178 2.35292 0.813363 2.79191L0.813348 2.79192L0.816411 2.79513L5.51536 7.71867L0.811659 12.6424L0.811643 12.6424L0.808442 12.6458C0.39686 13.0848 0.39686 13.7829 0.808442 14.2219L0.808443 14.2219L1.15779 14.5945C1.15779 14.5945 1.15779 14.5945 1.15779 14.5945C1.58608 15.0513 2.29331 15.0518 2.72225 14.5961L8.51726 8.50969Z" fill="#0952A3" stroke="#0952A3"/>
</svg>
