<svg width="44" height="44" viewBox="0 0 44 44" fill="none" xmlns="http://www.w3.org/2000/svg">
<circle cx="22" cy="22" r="22" fill="white"/>
<circle cx="22" cy="22" r="21.5" stroke="#0952A3" stroke-opacity="0.3"/>
<path d="M29.0841 13.0734H26.9619V12.124C26.9619 11.8168 26.6268 11.6772 26.3196 11.6772H24.6722C24.2813 10.5603 23.3039 10.0018 22.187 10.0018C21.0823 9.96028 20.0775 10.6376 19.7018 11.6772H18.0822C17.775 11.6772 17.4679 11.8168 17.4679 12.124V13.0734H15.3456C14.088 13.0868 13.0591 14.0789 13 15.3352V31.3354C13 32.5641 14.1169 33.4576 15.3456 33.4576H29.0841C30.3127 33.4576 31.4297 32.5641 31.4297 31.3354V15.3352C31.3706 14.0789 30.3417 13.0868 29.0841 13.0734ZM18.5847 12.7942H20.1206C20.3887 12.7615 20.604 12.5575 20.6511 12.2916C20.8165 11.5714 21.4483 11.0545 22.187 11.035C22.9188 11.0572 23.5411 11.5757 23.6948 12.2916C23.7449 12.5667 23.9745 12.7733 24.2533 12.7942H25.845V15.0281H18.5847V12.7942ZM30.3127 31.3355C30.3127 31.9498 29.6984 32.3407 29.0841 32.3407H15.3456C14.7313 32.3407 14.1169 31.9498 14.1169 31.3355V15.3352C14.1739 14.6958 14.7037 14.2021 15.3456 14.1904H17.4678V15.6145C17.4973 15.9274 17.7683 16.1614 18.0821 16.1451H26.3196C26.6392 16.1626 26.9187 15.9317 26.9618 15.6145V14.1903H29.084C29.7259 14.2021 30.2557 14.6957 30.3127 15.3352V31.3355H30.3127Z" fill="#0952A3"/>
<path d="M20.0647 22.4837C19.8553 22.2629 19.5075 22.2504 19.2828 22.4558L17.4957 24.1591L16.7418 23.3772C16.5323 23.1564 16.1846 23.144 15.9599 23.3493C15.7436 23.5759 15.7436 23.9325 15.9599 24.1591L17.1047 25.3319C17.2038 25.4429 17.347 25.5042 17.4957 25.4995C17.643 25.4974 17.7835 25.4371 17.8866 25.3319L20.0646 23.2656C20.2806 23.0675 20.295 22.7318 20.0969 22.516C20.0867 22.5047 20.076 22.4939 20.0647 22.4837Z" fill="#0952A3"/>
<path d="M28.0788 23.6846H21.6564C21.348 23.6846 21.0979 23.9346 21.0979 24.243C21.0979 24.5515 21.348 24.8015 21.6564 24.8015H28.0788C28.3873 24.8015 28.6373 24.5515 28.6373 24.243C28.6373 23.9346 28.3873 23.6846 28.0788 23.6846Z" fill="#0952A3"/>
<path d="M20.0647 18.0159C19.8553 17.7951 19.5075 17.7827 19.2828 17.988L17.4957 19.6913L16.7418 18.9094C16.5323 18.6887 16.1846 18.6762 15.9599 18.8815C15.7436 19.1082 15.7436 19.4647 15.9599 19.6913L17.1047 20.8641C17.2038 20.9751 17.347 21.0364 17.4957 21.0317C17.643 21.0296 17.7835 20.9694 17.8866 20.8641L20.0646 18.7978C20.2806 18.5997 20.295 18.2641 20.0969 18.0482C20.0867 18.0369 20.076 18.0262 20.0647 18.0159Z" fill="#0952A3"/>
<path d="M28.0788 19.2168H21.6564C21.348 19.2168 21.0979 19.4668 21.0979 19.7753C21.0979 20.0837 21.348 20.3337 21.6564 20.3337H28.0788C28.3873 20.3337 28.6373 20.0837 28.6373 19.7753C28.6373 19.4668 28.3873 19.2168 28.0788 19.2168Z" fill="#0952A3"/>
<path d="M20.0647 26.9514C19.8553 26.7306 19.5075 26.7182 19.2828 26.9235L17.4957 28.6269L16.7418 27.845C16.5323 27.6242 16.1846 27.6118 15.9599 27.8171C15.7436 28.0437 15.7436 28.4002 15.9599 28.6269L17.1047 29.7997C17.2038 29.9106 17.347 29.972 17.4957 29.9672C17.643 29.9651 17.7835 29.9049 17.8866 29.7997L20.0646 27.7333C20.2806 27.5352 20.295 27.1996 20.0969 26.9837C20.0867 26.9725 20.076 26.9617 20.0647 26.9514Z" fill="#0952A3"/>
<path d="M28.0788 28.1523H21.6564C21.348 28.1523 21.0979 28.4024 21.0979 28.7108C21.0979 29.0193 21.348 29.2693 21.6564 29.2693H28.0788C28.3873 29.2693 28.6373 29.0193 28.6373 28.7108C28.6373 28.4024 28.3873 28.1523 28.0788 28.1523Z" fill="#0952A3"/>
</svg>
