<svg width="10" height="16" viewBox="0 0 10 16" fill="none" xmlns="http://www.w3.org/2000/svg">
<path d="M0.811846 8.50969L0.811835 8.5097L0.809206 8.5069C0.398073 8.06839 0.3984 7.37306 0.800639 6.93471L0.800577 6.93466L0.806925 6.92799L6.60199 0.841523C7.03094 0.385848 7.73813 0.386402 8.1664 0.843186L8.51574 1.21579C8.92732 1.65477 8.92732 2.35292 8.51574 2.79191L8.51575 2.79192L8.51269 2.79513L3.81374 7.71867L8.51744 12.6424L8.51746 12.6424L8.52066 12.6458C8.93224 13.0848 8.93224 13.7829 8.52066 14.2219L8.52066 14.2219L8.17132 14.5945C8.17132 14.5945 8.17132 14.5945 8.17132 14.5945C7.74303 15.0513 7.03579 15.0518 6.60685 14.5961L0.811846 8.50969Z" fill="#0952A3" stroke="#0952A3"/>
</svg>
