<svg width="44" height="44" viewBox="0 0 44 44" fill="none" xmlns="http://www.w3.org/2000/svg">
<circle cx="22" cy="22" r="22" fill="white"/>
<circle cx="22" cy="22" r="21.5" stroke="#0952A3" stroke-opacity="0.3"/>
<path d="M27.3535 26.1282C28.1435 26.12 28.8342 25.5864 29.0369 24.8212L30.9851 17.5663C31.0471 17.3306 30.9106 17.0907 30.6748 17.0245C30.6376 17.0162 30.6004 17.008 30.5632 17.008H15.9087L14.9119 13.3268C14.8622 13.1365 14.6885 13 14.49 13H12V13.881H14.1425L15.1063 17.4795C15.1021 17.5084 15.1021 17.5374 15.1063 17.5663L17.0916 24.846C17.104 24.9039 17.1247 24.966 17.1454 25.0239L17.8155 27.4642C17.1702 27.8075 16.7318 28.4859 16.7318 29.2676C16.7318 30.3968 17.6459 31.3109 18.7751 31.3109C19.9042 31.3109 20.8183 30.3968 20.8183 29.2676C20.8183 28.916 20.7273 28.581 20.5702 28.2915C20.5329 28.2253 20.4957 28.1591 20.4502 28.0929H25.6494C25.4178 28.4238 25.2771 28.8292 25.2771 29.2676C25.2771 30.3968 26.1912 31.3109 27.3204 31.3109C28.4496 31.3109 29.3637 30.3968 29.3637 29.2676C29.3637 28.734 29.161 28.2501 28.826 27.8861C28.4661 27.4766 27.9367 27.216 27.3452 27.2119H18.6965L18.3863 26.0745C18.5186 26.1076 18.6551 26.1282 18.7916 26.1282H27.3535ZM27.3245 28.0929C27.9739 28.0929 28.4992 28.6182 28.4992 29.2676C28.4992 29.917 27.9739 30.4423 27.3245 30.4423C26.6752 30.4423 26.1499 29.917 26.1499 29.2676C26.1499 28.6182 26.6752 28.0929 27.3245 28.0929ZM18.7751 28.0929C19.4244 28.0929 19.9456 28.6224 19.9456 29.2676C19.9456 29.917 19.4203 30.4423 18.7709 30.4423C18.1215 30.4423 17.6004 29.917 17.6004 29.2676C17.6004 28.6182 18.1257 28.0929 18.7751 28.0929ZM17.9892 24.6888L17.0006 21.0738L16.1196 17.8972H29.9717L28.1807 24.6227C28.0815 25.0073 27.7382 25.2762 27.3411 25.2845H18.7833C18.4235 25.2638 18.1091 25.0321 17.9892 24.6888Z" fill="#0952A3"/>
</svg>
