<svg width="15" height="14" viewBox="0 0 15 14" fill="none" xmlns="http://www.w3.org/2000/svg">
<path d="M5.82207 11.2705C7.11506 11.2705 8.37106 10.8538 9.39113 10.0864L13.2395 13.8036C13.527 14.0717 13.9851 14.064 14.2628 13.7864C14.5336 13.5155 14.5336 13.0861 14.2628 12.8152L10.4144 9.09806C12.3859 6.64671 11.9268 3.11578 9.3889 1.21148C6.85101 -0.692811 3.19545 -0.249367 1.22392 2.20198C-0.747602 4.65332 -0.288502 8.18425 2.24939 10.0885C3.27112 10.8552 4.52824 11.2711 5.82207 11.2705ZM2.72993 2.66398C4.43769 1.01442 7.20652 1.01439 8.91432 2.66392C10.6221 4.31345 10.6221 6.98786 8.91438 8.63742C7.20662 10.287 4.43778 10.287 2.72999 8.63748C2.72996 8.63745 2.72996 8.63745 2.72993 8.63742C1.02216 6.99991 1.0121 4.33525 2.70742 2.68572C2.71491 2.67845 2.7224 2.67122 2.72993 2.66398Z" fill="#808080" fill-opacity="0.5"/>
</svg>
