<svg width="44" height="44" viewBox="0 0 44 44" fill="none" xmlns="http://www.w3.org/2000/svg">
<circle cx="22" cy="22" r="22" fill="white"/>
<circle cx="22" cy="22" r="21.5" stroke="#0952A3" stroke-opacity="0.3"/>
<path d="M14.3 25.667C12.6598 25.667 11 26.1708 11 27.1337V31.5336C11 32.4965 12.6598 33.0003 14.3 33.0003C15.9401 33.0003 17.6 32.4965 17.6 31.5336V27.1337C17.6 26.1708 15.9401 25.667 14.3 25.667ZM14.3 26.4003C15.9672 26.4003 16.8667 26.921 16.8667 27.1337C16.8667 27.3463 15.9672 27.867 14.3 27.867C12.6328 27.867 11.7333 27.3463 11.7333 27.1337C11.7333 26.921 12.6328 26.4003 14.3 26.4003ZM14.3 32.267C12.6328 32.267 11.7333 31.7463 11.7333 31.5336V31.0203C12.5388 31.3843 13.4166 31.5598 14.3 31.5336C15.1834 31.5598 16.0612 31.3843 16.8667 31.0203V31.5336C16.8667 31.7463 15.9672 32.267 14.3 32.267ZM14.3 30.8003C12.6328 30.8003 11.7333 30.2797 11.7333 30.067V29.5537C12.5388 29.9177 13.4166 30.0931 14.3 30.067C15.1834 30.0931 16.0612 29.9177 16.8667 29.5537V30.067C16.8667 30.2797 15.9672 30.8003 14.3 30.8003ZM14.3 29.3336C12.6328 29.3336 11.7333 28.813 11.7333 28.6003V28.087C12.5388 28.451 13.4166 28.6265 14.3 28.6003C15.1834 28.6265 16.0612 28.451 16.8667 28.087V28.6003C16.8667 28.813 15.9672 29.3336 14.3 29.3336Z" fill="#0952A3"/>
<path d="M22.0001 22.7334C20.3599 22.7334 18.7001 23.2372 18.7001 24.2001V31.5334C18.7001 32.4962 20.3599 33 22.0001 33C23.6402 33 25.3001 32.4962 25.3001 31.5334V24.2001C25.3001 23.2372 23.6402 22.7334 22.0001 22.7334ZM22.0001 23.4667C23.6672 23.4667 24.5667 23.9874 24.5667 24.2001C24.5667 24.4128 23.6672 24.9334 22.0001 24.9334C20.3329 24.9334 19.4334 24.4128 19.4334 24.2001C19.4334 23.9874 20.3329 23.4667 22.0001 23.4667ZM22.0001 32.2667C20.3329 32.2667 19.4334 31.7461 19.4334 31.5334V31.0201C20.2389 31.3841 21.1167 31.5595 22.0001 31.5334C22.8834 31.5595 23.7612 31.3841 24.5667 31.0201V31.5334C24.5667 31.7461 23.6672 32.2667 22.0001 32.2667ZM22.0001 30.8C20.3329 30.8 19.4334 30.2794 19.4334 30.0667V29.5534C20.2389 29.9174 21.1167 30.0929 22.0001 30.0667C22.8834 30.0929 23.7612 29.9174 24.5667 29.5534V30.0667C24.5667 30.2794 23.6672 30.8 22.0001 30.8ZM22.0001 29.3334C20.3329 29.3334 19.4334 28.8127 19.4334 28.6V28.0868C20.2389 28.4507 21.1167 28.6262 22.0001 28.6C22.8834 28.6262 23.7612 28.4507 24.5667 28.0868V28.6C24.5667 28.8127 23.6672 29.3334 22.0001 29.3334ZM22.0001 27.8667C20.3329 27.8667 19.4334 27.3461 19.4334 27.1334V26.6201C20.2389 26.9841 21.1167 27.1595 22.0001 27.1334C22.8834 27.1595 23.7612 26.9841 24.5667 26.6201V27.1334C24.5667 27.3461 23.6672 27.8667 22.0001 27.8667ZM22.0001 26.4001C20.3329 26.4001 19.4334 25.8794 19.4334 25.6667V25.1534C20.2389 25.5174 21.1167 25.6929 22.0001 25.6667C22.8834 25.6929 23.7612 25.5174 24.5667 25.1534V25.6667C24.5667 25.8794 23.6672 26.4001 22.0001 26.4001Z" fill="#0952A3"/>
<path d="M29.7 18.333C28.0599 18.333 26.4 18.8368 26.4 19.7997V31.533C26.4 32.4958 28.0599 32.9996 29.7 32.9996C31.3402 32.9996 33 32.4958 33 31.533V19.7997C33 18.8368 31.3402 18.333 29.7 18.333ZM29.7 19.0663C31.3672 19.0663 32.2667 19.587 32.2667 19.7997C32.2667 20.0124 31.3672 20.533 29.7 20.533C28.0328 20.533 27.1334 20.0124 27.1334 19.7997C27.1334 19.587 28.0328 19.0663 29.7 19.0663ZM29.7 32.2663C28.0328 32.2663 27.1334 31.7457 27.1334 31.533V31.0197C27.9388 31.3837 28.8167 31.5591 29.7 31.533C30.5834 31.5591 31.4612 31.3837 32.2667 31.0197V31.533C32.2667 31.7457 31.3672 32.2663 29.7 32.2663ZM29.7 30.7996C28.0328 30.7996 27.1334 30.279 27.1334 30.0663V29.553C27.9388 29.917 28.8167 30.0924 29.7 30.0663C30.5834 30.0924 31.4612 29.917 32.2667 29.553V30.0663C32.2667 30.279 31.3672 30.7996 29.7 30.7996ZM29.7 29.333C28.0328 29.333 27.1334 28.8123 27.1334 28.5996V28.0863C27.9388 28.4503 28.8167 28.6258 29.7 28.5996C30.5834 28.6258 31.4612 28.4503 32.2667 28.0863V28.5996C32.2667 28.8123 31.3672 29.333 29.7 29.333ZM29.7 27.8663C28.0328 27.8663 27.1334 27.3457 27.1334 27.133V26.6197C27.9388 26.9837 28.8167 27.1591 29.7 27.133C30.5834 27.1591 31.4612 26.9837 32.2667 26.6197V27.133C32.2667 27.3457 31.3672 27.8663 29.7 27.8663ZM29.7 26.3997C28.0328 26.3997 27.1334 25.879 27.1334 25.6663V25.153C27.9388 25.517 28.8167 25.6925 29.7 25.6663C30.5834 25.6925 31.4612 25.517 32.2667 25.153V25.6663C32.2667 25.879 31.3672 26.3997 29.7 26.3997ZM29.7 24.933C28.0328 24.933 27.1334 24.4124 27.1334 24.1997V23.6864C27.9388 24.0503 28.8167 24.2258 29.7 24.1997C30.5834 24.2258 31.4612 24.0503 32.2667 23.6864V24.1997C32.2667 24.4124 31.3672 24.933 29.7 24.933ZM29.7 23.4663C28.0328 23.4663 27.1334 22.9457 27.1334 22.733V22.2197C27.9388 22.5837 28.8167 22.7591 29.7 22.733C30.5834 22.7591 31.4612 22.5837 32.2667 22.2197V22.733C32.2667 22.9457 31.3672 23.4663 29.7 23.4663ZM29.7 21.9997C28.0328 21.9997 27.1334 21.479 27.1334 21.2663V20.753C27.9388 21.117 28.8167 21.2925 29.7 21.2663C30.5834 21.2925 31.4612 21.117 32.2667 20.753V21.2663C32.2667 21.479 31.3672 21.9997 29.7 21.9997Z" fill="#0952A3"/>
<path d="M28.9666 11V11.7333H31.7482L24.7815 18.7H17.0955L11.125 23.9239L11.6084 24.476L17.3712 19.4333H25.0851L32.2666 12.2518V15.0333H33V11H28.9666Z" fill="#0952A3"/>
</svg>
