<svg width="44" height="44" viewBox="0 0 44 44" fill="none" xmlns="http://www.w3.org/2000/svg">
<circle cx="22" cy="22" r="22" fill="white"/>
<circle cx="22" cy="22" r="21.5" stroke="#0952A3" stroke-opacity="0.3"/>
<path d="M16.5235 26.394H9.367C9.26966 26.394 9.17632 26.3553 9.10749 26.2865C9.03867 26.2177 9 26.1243 9 26.027V24.3755C9.00107 23.4122 9.3842 22.4887 10.0653 21.8076C10.7465 21.1264 11.67 20.7433 12.6333 20.7422H16.0757C16.9396 20.7389 17.7761 21.0451 18.4337 21.6054C19.0912 22.1657 19.5263 22.9429 19.6602 23.7964C19.6756 23.8925 19.6521 23.9908 19.5951 24.0696C19.538 24.1485 19.4519 24.2014 19.3558 24.2168C19.2597 24.2322 19.1614 24.2087 19.0825 24.1516C19.0037 24.0945 18.9508 24.0085 18.9354 23.9123C18.8285 23.2315 18.4814 22.6115 17.9568 22.1646C17.4322 21.7177 16.7649 21.4735 16.0757 21.4762H12.6333C11.8646 21.4771 11.1277 21.7828 10.5841 22.3264C10.0406 22.8699 9.73487 23.6068 9.734 24.3755V25.66H16.5235C16.6208 25.66 16.7141 25.6987 16.783 25.7675C16.8518 25.8363 16.8905 25.9297 16.8905 26.027C16.8905 26.1243 16.8518 26.2177 16.783 26.2865C16.7141 26.3553 16.6208 26.394 16.5235 26.394Z" fill="#0952A3" stroke="#0952A3" stroke-width="0.5"/>
<path d="M14.3534 19.6855C13.7911 19.6856 13.2415 19.5189 12.7739 19.2066C12.3064 18.8943 11.942 18.4503 11.7268 17.9309C11.5115 17.4115 11.4552 16.8399 11.5648 16.2884C11.6745 15.7369 11.9452 15.2304 12.3428 14.8328C12.7403 14.4352 13.2468 14.1644 13.7983 14.0547C14.3497 13.9449 14.9214 14.0012 15.4408 14.2164C15.9603 14.4315 16.4043 14.7959 16.7167 15.2634C17.0291 15.7309 17.1958 16.2805 17.1958 16.8428C17.195 17.5964 16.8953 18.319 16.3624 18.8519C15.8296 19.3849 15.107 19.6847 14.3534 19.6855ZM14.3534 14.7344C13.9363 14.7343 13.5285 14.8579 13.1817 15.0896C12.8348 15.3213 12.5645 15.6506 12.4048 16.036C12.2452 16.4213 12.2034 16.8454 12.2848 17.2544C12.3661 17.6635 12.567 18.0393 12.8619 18.3343C13.1568 18.6292 13.5326 18.8301 13.9417 18.9114C14.3508 18.9928 14.7748 18.951 15.1602 18.7913C15.5455 18.6317 15.8749 18.3613 16.1066 18.0145C16.3382 17.6676 16.4619 17.2599 16.4618 16.8428C16.4611 16.2838 16.2388 15.7479 15.8435 15.3527C15.4483 14.9574 14.9124 14.735 14.3534 14.7344Z" fill="#0952A3" stroke="#0952A3" stroke-width="0.5"/>
<path d="M34.3229 26.394H27.1665C27.0691 26.394 26.9758 26.3553 26.907 26.2865C26.8381 26.2177 26.7995 26.1243 26.7995 26.027C26.7995 25.9297 26.8381 25.8363 26.907 25.7675C26.9758 25.6987 27.0691 25.66 27.1665 25.66H33.9559V24.3755C33.9551 23.6068 33.6493 22.8699 33.1058 22.3264C32.5622 21.7828 31.8253 21.4771 31.0566 21.4762H27.6142C26.925 21.4735 26.2575 21.7178 25.7329 22.1649C25.2083 22.6119 24.8612 23.2321 24.7545 23.9131C24.7392 24.0092 24.6862 24.0953 24.6074 24.1524C24.5286 24.2095 24.4303 24.2329 24.3342 24.2175C24.238 24.2021 24.152 24.1492 24.0949 24.0704C24.0378 23.9915 24.0143 23.8932 24.0297 23.7971C24.1634 22.9435 24.5985 22.1661 25.2561 21.6057C25.9136 21.0452 26.7502 20.7389 27.6142 20.7422H31.0566C32.0199 20.7433 32.9434 21.1264 33.6246 21.8076C34.3057 22.4887 34.6889 23.4122 34.6899 24.3755V26.027C34.6899 26.1243 34.6513 26.2177 34.5824 26.2865C34.5136 26.3553 34.4203 26.394 34.3229 26.394Z" fill="#0952A3" stroke="#0952A3" stroke-width="0.5"/>
<path d="M29.3364 19.6855C28.7741 19.6855 28.2245 19.5188 27.757 19.2064C27.2895 18.8941 26.9252 18.4501 26.71 17.9307C26.4949 17.4112 26.4386 16.8396 26.5482 16.2882C26.6579 15.7367 26.9287 15.2302 27.3263 14.8326C27.7238 14.4351 28.2304 14.1643 28.7818 14.0546C29.3332 13.9449 29.9048 14.0012 30.4243 14.2164C30.9437 14.4316 31.3877 14.7959 31.7001 15.2634C32.0124 15.7309 32.1792 16.2805 32.1792 16.8428C32.1783 17.5965 31.8785 18.319 31.3456 18.8519C30.8126 19.3849 30.0901 19.6847 29.3364 19.6855ZM29.3364 14.7344C28.9193 14.7344 28.5116 14.8581 28.1648 15.0898C27.818 15.3215 27.5477 15.6509 27.3881 16.0362C27.2285 16.4216 27.1868 16.8456 27.2682 17.2547C27.3496 17.6637 27.5504 18.0395 27.8454 18.3344C28.1403 18.6293 28.5161 18.8301 28.9252 18.9114C29.3343 18.9928 29.7583 18.9509 30.1436 18.7913C30.529 18.6316 30.8583 18.3613 31.09 18.0144C31.3216 17.6676 31.4452 17.2599 31.4452 16.8428C31.4446 16.2837 31.2222 15.7477 30.8269 15.3524C30.4315 14.9571 29.8955 14.7349 29.3364 14.7344Z" fill="#0952A3" stroke="#0952A3" stroke-width="0.5"/>
<path d="M27.4691 29.3484H16.2206C16.1233 29.3484 16.03 29.3097 15.9611 29.2409C15.8923 29.1721 15.8536 29.0787 15.8536 28.9814V27.487C15.8547 26.413 16.2818 25.3833 17.0412 24.6238C17.8006 23.8644 18.8302 23.4372 19.9042 23.436H23.7856C24.8596 23.4372 25.8892 23.8644 26.6486 24.6238C27.408 25.3833 27.8351 26.413 27.8361 27.487V28.9814C27.8361 29.0787 27.7975 29.1721 27.7286 29.2409C27.6598 29.3097 27.5665 29.3484 27.4691 29.3484ZM16.5876 28.6144H27.1021V27.487C27.1013 26.6076 26.7516 25.7645 26.1298 25.1426C25.508 24.5208 24.6649 24.171 23.7856 24.17H19.9042C19.0249 24.171 18.1819 24.5207 17.5601 25.1425C16.9383 25.7643 16.5886 26.6073 16.5876 27.4866V28.6144Z" fill="#0952A3" stroke="#0952A3" stroke-width="0.5"/>
<path d="M21.8449 22.1515C21.22 22.1516 20.6091 21.9663 20.0895 21.6192C19.5698 21.2721 19.1648 20.7787 18.9256 20.2013C18.6864 19.624 18.6238 18.9888 18.7457 18.3758C18.8676 17.7629 19.1684 17.1999 19.6103 16.758C20.0521 16.3161 20.6151 16.0152 21.228 15.8933C21.8409 15.7713 22.4762 15.8339 23.0535 16.073C23.6309 16.3121 24.1243 16.7171 24.4715 17.2367C24.8187 17.7562 25.004 18.3671 25.004 18.992C25.0032 19.8297 24.6702 20.6328 24.0779 21.2251C23.4856 21.8175 22.6825 22.1506 21.8449 22.1515ZM21.8449 16.5658C21.3651 16.5657 20.8961 16.7079 20.4972 16.9744C20.0983 17.2409 19.7874 17.6197 19.6037 18.0629C19.4201 18.5061 19.372 18.9938 19.4656 19.4644C19.5592 19.9349 19.7902 20.3671 20.1294 20.7064C20.4687 21.0456 20.9009 21.2766 21.3714 21.3702C21.842 21.4638 22.3297 21.4157 22.7729 21.2321C23.2161 21.0484 23.5949 20.7375 23.8614 20.3386C24.1279 19.9397 24.2701 19.4707 24.27 18.9909C24.2693 18.3479 24.0136 17.7315 23.559 17.2768C23.1043 16.8222 22.4879 16.5665 21.8449 16.5658Z" fill="#0952A3" stroke="#0952A3" stroke-width="0.5"/>
</svg>
