<svg width="44" height="44" viewBox="0 0 44 44" fill="none" xmlns="http://www.w3.org/2000/svg">
<circle cx="22" cy="22" r="22" fill="white"/>
<circle cx="22" cy="22" r="21.5" stroke="#0952A3" stroke-opacity="0.3"/>
<path d="M31.4111 13.434H26.2778V12.2111C26.2778 12.0489 26.2134 11.8934 26.0988 11.7787C25.9842 11.6641 25.8287 11.5996 25.6667 11.5996H23.2222C23.0601 11.5996 22.9047 11.6641 22.7901 11.7787C22.6755 11.8934 22.6111 12.0489 22.6111 12.2111V13.434H20.5639C20.3094 12.7216 19.8411 12.1053 19.223 11.6696C18.6048 11.2339 17.8672 11 17.1111 11C16.355 11 15.6174 11.2339 14.9993 11.6696C14.3812 12.1053 13.9128 12.7216 13.6583 13.434H12.5889C12.168 13.4356 11.7648 13.6036 11.4672 13.9014C11.1695 14.1992 11.0016 14.6026 11 15.0237V26.5188C11.0016 26.9399 11.1695 27.3433 11.4672 27.6411C11.7648 27.9389 12.168 28.1069 12.5889 28.1085H19.4211L19.0544 29.9428H18.6389C18.2337 29.9428 17.8451 30.1039 17.5586 30.3905C17.2721 30.6772 17.1111 31.066 17.1111 31.4714C17.1111 31.8768 17.2721 32.2656 17.5586 32.5523C17.8451 32.839 18.2337 33 18.6389 33H25.3611C25.7663 33 26.1549 32.839 26.4414 32.5523C26.7279 32.2656 26.8889 31.8768 26.8889 31.4714C26.8889 31.066 26.7279 30.6772 26.4414 30.3905C26.1549 30.1039 25.7663 29.9428 25.3611 29.9428H24.9456L24.5789 28.1085H31.4111C31.832 28.1069 32.2352 27.9389 32.5328 27.6411C32.8305 27.3433 32.9984 26.9399 33 26.5188V15.0237C32.9984 14.6026 32.8305 14.1992 32.5328 13.9014C32.2352 13.6036 31.832 13.4356 31.4111 13.434ZM23.8333 12.8225H25.0556V21.9941H23.8333V12.8225ZM19.47 14.0454H17.7222V12.2967C18.1426 12.4065 18.5261 12.6264 18.8333 12.9337C19.1405 13.2411 19.3603 13.6248 19.47 14.0454ZM16.5 12.2967V14.6568C16.5 14.819 16.5644 14.9745 16.679 15.0892C16.7936 15.2039 16.949 15.2683 17.1111 15.2683H19.47C19.3639 15.6872 19.1488 16.0705 18.8465 16.3792C18.5442 16.6878 18.1656 16.9109 17.7492 17.0256C17.3328 17.1402 16.8934 17.1425 16.4758 17.0321C16.0583 16.9216 15.6774 16.7025 15.372 16.3969C15.0666 16.0913 14.8475 15.7103 14.7372 15.2925C14.6268 14.8747 14.629 14.4351 14.7437 14.0184C14.8583 13.6018 15.0812 13.223 15.3897 12.9205C15.6982 12.6181 16.0813 12.4028 16.5 12.2967ZM12.5889 14.6568H13.4444C13.4444 15.6298 13.8308 16.563 14.5184 17.251C15.206 17.939 16.1387 18.3255 17.1111 18.3255C18.0836 18.3255 19.0162 17.939 19.7038 17.251C20.3915 16.563 20.7778 15.6298 20.7778 14.6568H22.6111V21.9941H22V19.5484C22 19.3862 21.9356 19.2307 21.821 19.116C21.7064 19.0013 21.551 18.9369 21.3889 18.9369H18.9444C18.7824 18.9369 18.6269 19.0013 18.5123 19.116C18.3977 19.2307 18.3333 19.3862 18.3333 19.5484V21.9941C18.1713 21.9982 18.0174 22.0665 17.9057 22.184C17.7939 22.3015 17.7334 22.4587 17.7375 22.6208C17.7416 22.783 17.8098 22.9369 17.9273 23.0487C18.0448 23.1605 18.2018 23.221 18.3639 23.217H30.6717C30.8337 23.217 30.9892 23.1526 31.1038 23.0379C31.2184 22.9232 31.2828 22.7677 31.2828 22.6055C31.2828 22.4434 31.2184 22.2879 31.1038 22.1732C30.9892 22.0585 30.8337 21.9941 30.6717 21.9941H30.5556V16.4912C30.5556 16.329 30.4912 16.1735 30.3766 16.0588C30.262 15.9441 30.1065 15.8797 29.9444 15.8797H27.5C27.3379 15.8797 27.1825 15.9441 27.0679 16.0588C26.9533 16.1735 26.8889 16.329 26.8889 16.4912V21.9941H26.2778V14.6568H31.4111C31.5084 14.6568 31.6016 14.6955 31.6704 14.7643C31.7391 14.8331 31.7778 14.9264 31.7778 15.0237V24.4399H12.2222V15.0237C12.2222 14.9264 12.2609 14.8331 12.3296 14.7643C12.3984 14.6955 12.4916 14.6568 12.5889 14.6568ZM20.7778 21.9941H19.5556V20.1598H20.7778V21.9941ZM29.3333 21.9941H28.1111V17.1026H29.3333V21.9941ZM25.6667 31.4714C25.6667 31.5525 25.6345 31.6302 25.5772 31.6876C25.5199 31.7449 25.4421 31.7771 25.3611 31.7771H18.6389C18.5579 31.7771 18.4801 31.7449 18.4228 31.6876C18.3655 31.6302 18.3333 31.5525 18.3333 31.4714C18.3333 31.3903 18.3655 31.3126 18.4228 31.2552C18.4801 31.1979 18.5579 31.1657 18.6389 31.1657H25.3611C25.4421 31.1657 25.5199 31.1979 25.5772 31.2552C25.6345 31.3126 25.6667 31.3903 25.6667 31.4714ZM23.6989 29.9428H20.3011L20.6678 28.1085H23.3322L23.6989 29.9428ZM31.4111 26.8856H12.5889C12.4916 26.8856 12.3984 26.847 12.3296 26.7782C12.2609 26.7094 12.2222 26.616 12.2222 26.5188V25.6627H31.7778V26.5188C31.7778 26.616 31.7391 26.7094 31.6704 26.7782C31.6016 26.847 31.5084 26.8856 31.4111 26.8856Z" fill="#0952A3"/>
</svg>
