<svg width="44" height="44" viewBox="0 0 44 44" fill="none" xmlns="http://www.w3.org/2000/svg">
<circle cx="22" cy="22" r="22" fill="white"/>
<circle cx="22" cy="22" r="21.5" stroke="#0952A3" stroke-opacity="0.3"/>
<path d="M28.2907 30.5715H13.4286V15.7094C13.4286 15.3151 13.1086 14.9951 12.7143 14.9951C12.32 14.9951 12 15.3151 12 15.7094V31.2858C12 31.6808 12.32 32.0001 12.7143 32.0001H28.2907C28.6857 32.0001 29.005 31.6808 29.005 31.2858C29.005 30.8908 28.685 30.5715 28.2907 30.5715Z" fill="#0952A3"/>
<path d="M31.2857 12H15.7093C15.315 12 14.995 12.32 14.995 12.7143V28.2907C14.995 28.6857 15.315 29.005 15.7093 29.005H31.2857C31.6807 29.005 32 28.6857 32 28.2907V12.7143C32 12.32 31.6807 12 31.2857 12ZM30.5714 27.5764H16.4235V13.4286H30.5714V27.5764Z" fill="#0952A3"/>
<path d="M19.6035 17.3231H27.3921C27.7871 17.3231 28.1064 17.0031 28.1064 16.6088C28.1064 16.2145 27.7871 15.8945 27.3921 15.8945H19.6035C19.2093 15.8945 18.8893 16.2145 18.8893 16.6088C18.8893 17.0031 19.2093 17.3231 19.6035 17.3231Z" fill="#0952A3"/>
<path d="M19.6035 21.2167H27.3921C27.7871 21.2167 28.1064 20.8967 28.1064 20.5024C28.1064 20.1081 27.7871 19.7881 27.3921 19.7881H19.6035C19.2093 19.7881 18.8893 20.1081 18.8893 20.5024C18.8893 20.8967 19.2093 21.2167 19.6035 21.2167Z" fill="#0952A3"/>
<path d="M19.6035 25.1102H27.3921C27.7871 25.1102 28.1064 24.7909 28.1064 24.3959C28.1064 24.0009 27.7871 23.6816 27.3921 23.6816H19.6035C19.2093 23.6816 18.8893 24.0009 18.8893 24.3959C18.8893 24.7909 19.2093 25.1102 19.6035 25.1102Z" fill="#0952A3"/>
</svg>
