<svg width="44" height="44" viewBox="0 0 44 44" fill="none" xmlns="http://www.w3.org/2000/svg">
<circle cx="22" cy="22" r="22" fill="white"/>
<circle cx="22" cy="22" r="21.5" stroke="#0952A3" stroke-opacity="0.3"/>
<path d="M34.0746 20.2464L31.7977 16.6544C31.7346 16.5549 31.641 16.4721 31.534 16.4227L22.2725 12.0509C22.1006 11.9698 21.9011 11.9714 21.7306 12.0552L12.4539 16.6164C12.3565 16.6642 12.2708 16.7394 12.2105 16.8295L9.93351 20.2336C9.73699 20.5274 9.83465 20.9461 10.1423 21.1221L12.1051 22.2451V27.4852C12.1051 27.7166 12.2333 27.9291 12.438 28.0371L21.7086 32.9286C21.8918 33.0252 22.1186 33.0234 22.3002 32.9238L31.5708 27.8371C31.873 27.6713 31.9835 27.2919 31.8177 26.9898C31.6518 26.6877 31.2724 26.5772 30.9702 26.743L22.6241 31.3224V23.8516L24.3155 25.9722C24.5028 26.2071 24.8535 26.2736 25.1136 26.1248L33.8575 21.1221C34.1592 20.9494 34.2612 20.5408 34.0746 20.2464ZM22.0115 13.308L29.8962 17.0298L21.9943 21.3594L14.1038 17.196L22.0115 13.308ZM12.9355 17.9908L21.042 22.2681L19.0419 24.7758L11.3433 20.3712L12.9355 17.9908ZM13.3535 27.1089V22.9593L18.8863 26.1248C19.1462 26.2735 19.4974 26.2068 19.6844 25.9722L21.3757 23.8516V31.3418L13.3535 27.1089ZM24.9579 24.7758L22.9504 22.2588L31.0568 17.8171L32.6706 20.363L24.9579 24.7758Z" fill="#0952A3"/>
<path d="M31 22H32V27C32 27.5523 31.5523 28 31 28V22Z" fill="#0952A3"/>
</svg>
