<svg width="44" height="44" viewBox="0 0 44 44" fill="none" xmlns="http://www.w3.org/2000/svg">
<circle cx="22" cy="22" r="22" fill="white"/>
<circle cx="22" cy="22" r="21.5" stroke="#0952A3" stroke-opacity="0.3"/>
<path fill-rule="evenodd" clip-rule="evenodd" d="M32 22.0011C32 24.6699 30.9585 27.1844 29.0714 29.0715C27.1844 30.9586 24.6697 32.0001 22.001 32.0001C19.3324 32.0001 16.8178 30.9586 14.9308 29.0716C13.0437 27.1844 12.0021 24.6699 12.0021 22.0011C12.0021 18.4571 13.8881 15.1693 16.9412 13.3759C17.3115 13.1584 17.74 13.156 18.1127 13.3693C18.4854 13.5826 18.7004 13.9534 18.7004 14.3828C18.7004 14.8362 18.5231 15.2019 18.1268 15.4362C15.8097 16.8058 14.379 19.3069 14.379 22.0011C14.379 26.2036 17.7985 29.6232 22.001 29.6232C26.2036 29.6232 29.6231 26.2036 29.6231 22.0011C29.6231 19.307 28.1927 16.8058 25.8755 15.4362C25.5108 15.2207 25.3019 14.8547 25.3019 14.431C25.3019 13.9719 25.4849 13.6009 25.8896 13.3693C26.2623 13.156 26.6908 13.1584 27.0611 13.3758C30.1143 15.1691 32 18.4572 32 22.0011ZM23.1555 20.4336V12.1543C23.1555 11.5169 22.6384 11 22.001 11C21.3637 11 20.8467 11.5169 20.8467 12.1543V20.4336C20.8467 21.0711 21.3635 21.5879 22.001 21.5879C22.6386 21.5879 23.1555 21.0712 23.1555 20.4336Z" fill="#0952A3"/>
</svg>
