<svg width="44" height="44" viewBox="0 0 44 44" fill="none" xmlns="http://www.w3.org/2000/svg">
<circle cx="22" cy="22" r="22" fill="white"/>
<circle cx="22" cy="22" r="21.5" stroke="#0952A3" stroke-opacity="0.3"/>
<path d="M28.2575 24.0811C26.6693 24.0811 25.3772 25.3731 25.3772 26.9613C25.3772 28.5495 26.6693 29.8416 28.2575 29.8416C29.8459 29.8416 31.1377 28.5495 31.1377 26.9613C31.1377 25.3731 29.8457 24.0811 28.2575 24.0811ZM28.2575 28.4015C27.4632 28.4015 26.8173 27.7555 26.8173 26.9613C26.8173 26.1671 27.4632 25.5212 28.2575 25.5212C29.0517 25.5212 29.6976 26.1671 29.6976 26.9613C29.6976 27.7556 29.0517 28.4015 28.2575 28.4015Z" fill="#0952A3"/>
<path d="M18.4165 24.0811C16.8283 24.0811 15.5363 25.3731 15.5363 26.9613C15.5363 28.5495 16.8283 29.8416 18.4165 29.8416C20.0048 29.8416 21.2968 28.5495 21.2968 26.9613C21.2968 25.3731 20.0048 24.0811 18.4165 24.0811ZM18.4165 28.4015C17.6223 28.4015 16.9764 27.7555 16.9764 26.9613C16.9764 26.1671 17.6223 25.5212 18.4165 25.5212C19.2105 25.5212 19.8567 26.1671 19.8567 26.9613C19.8567 27.7556 19.2108 28.4015 18.4165 28.4015Z" fill="#0952A3"/>
<path d="M30.1971 15.837C30.0747 15.5938 29.8258 15.4404 29.5536 15.4404H25.7613V16.8806H29.1096L31.0703 20.7804L32.3573 20.1333L30.1971 15.837Z" fill="#0952A3"/>
<path d="M26.0974 26.2646H20.6489V27.7048H26.0974V26.2646Z" fill="#0952A3"/>
<path d="M16.2563 26.2646H13.7601C13.3624 26.2646 13.0401 26.587 13.0401 26.9847C13.0401 27.3824 13.3625 27.7047 13.7601 27.7047H16.2564C16.6541 27.7047 16.9764 27.3824 16.9764 26.9847C16.9764 26.587 16.6541 26.2646 16.2563 26.2646Z" fill="#0952A3"/>
<path d="M33.6987 21.8631L32.2824 20.0389C32.1463 19.8632 31.9363 19.7605 31.7137 19.7605H26.4813V14.72C26.4813 14.3223 26.1589 14 25.7612 14H13.7601C13.3624 14 13.0401 14.3224 13.0401 14.72C13.0401 15.1177 13.3625 15.4401 13.7601 15.4401H25.0411V20.4805C25.0411 20.8783 25.3635 21.2006 25.7612 21.2006H31.3611L32.4098 22.5514V26.265H30.4176C30.0199 26.265 29.6975 26.5874 29.6975 26.9851C29.6975 27.3828 30.0199 27.7051 30.4176 27.7051H33.1298C33.5276 27.7051 33.8499 27.3828 33.8499 26.9851V22.3047C33.8499 22.1449 33.7966 21.9893 33.6987 21.8631Z" fill="#0952A3"/>
<path d="M16.2085 22.6172H12.8962C12.4985 22.6172 12.1761 22.9395 12.1761 23.3372C12.1761 23.735 12.4985 24.0573 12.8962 24.0573H16.2085C16.6062 24.0573 16.9285 23.7349 16.9285 23.3372C16.9286 22.9395 16.6062 22.6172 16.2085 22.6172Z" fill="#0952A3"/>
<path d="M17.8646 19.7842H11.72C11.3224 19.7842 11 20.1065 11 20.5043C11 20.902 11.3224 21.2243 11.72 21.2243H17.8646C18.2623 21.2243 18.5846 20.902 18.5846 20.5043C18.5846 20.1066 18.2623 19.7842 17.8646 19.7842Z" fill="#0952A3"/>
<path d="M19.0408 16.9521H12.8962C12.4985 16.9521 12.1761 17.2745 12.1761 17.6722C12.1761 18.0699 12.4985 18.3922 12.8962 18.3922H19.0408C19.4385 18.3922 19.7608 18.0699 19.7608 17.6722C19.7608 17.2745 19.4385 16.9521 19.0408 16.9521Z" fill="#0952A3"/>
</svg>
